<?xml version="1.0" encoding="UTF-8" standalone="no"?>
<svg width="52px" height="52px" viewBox="0 0 52 52" version="1.1" xmlns="http://www.w3.org/2000/svg" xmlns:xlink="http://www.w3.org/1999/xlink" xmlns:sketch="http://www.bohemiancoding.com/sketch/ns">
    <!-- Generator: Sketch 3.1.1 (8761) - http://www.bohemiancoding.com/sketch -->
    <title>icon_33185 + Oval 1</title>
    <desc>Created with Sketch.</desc>
    <defs></defs>
    <g id="Page-1" stroke="none" stroke-width="1" fill="none" fill-rule="evenodd" sketch:type="MSPage">
        <g id="icon_33185-+-Oval-1" sketch:type="MSLayerGroup" transform="translate(1.000000, 1.000000)">
            <g id="icon_33185" transform="translate(8.333333, 5.666667)" fill="#FFFFFF" sketch:type="MSShapeGroup">
                <path d="M10.8780822,18.7920329 C10.2114155,18.7920329 9.67123288,19.337284 9.67123288,20.0102058 C9.67123288,20.6831276 10.2114155,21.2283786 10.8780822,21.2283786 C11.5447489,21.2283786 12.0849315,20.6831276 12.0849315,20.0102058 C12.0849315,19.3377449 11.5447489,18.7920329 10.8780822,18.7920329 L10.8780822,18.7920329 Z M22.0237443,21.2283786 C22.690411,21.2283786 23.2305936,20.6831276 23.2305936,20.0102058 C23.2305936,19.337284 22.690411,18.7920329 22.0237443,18.7920329 C21.3570776,18.7920329 20.816895,19.337284 20.816895,20.0102058 C20.816895,20.6831276 21.3570776,21.2283786 22.0237443,21.2283786 L22.0237443,21.2283786 Z M31.2634703,23.7375473 C32.3068493,23.0655473 33.3611872,21.7422881 33.3611872,19.1381728 C33.3611872,17.4111605 32.8968037,16.0897449 31.9808219,15.2098765 C31.6826484,14.9236543 31.3648402,14.7130206 31.0547945,14.5576955 L31.1858447,14.5576955 C31.1858447,10.4390453 29.4511416,6.48954733 26.4260274,3.72134979 C26.316895,3.62271605 26.1694064,3.58169547 26.0251142,3.60474074 C25.8812785,3.63101235 25.7575342,3.7222716 25.6890411,3.85362963 C25.673516,3.8854321 24.0365297,7.02235391 22.2406393,8.38202469 C22.1369863,8.46130041 22.069863,8.57883128 22.0552511,8.70834568 C22.039726,8.83878189 22.0780822,8.9682963 22.160274,9.06923457 C22.1981735,9.1148642 25.9552511,13.6939588 27.9570776,17.5775473 C28.0246575,17.7089053 28.1484018,17.8001646 28.2922374,17.827358 C28.4150685,17.8476379 28.6022831,17.808 28.7059361,17.7333333 C28.9995434,17.525465 29.0826484,17.0903704 29.2415525,16.1275391 C29.2931507,15.816428 29.3726027,15.3370864 29.4474886,15.0863539 C29.8278539,15.1163128 30.6643836,15.2578107 31.3383562,15.9109136 C32.052968,16.6031934 32.4159817,17.6890864 32.4159817,19.1386337 C32.4159817,23.3158189 29.3374429,23.4706831 29.2082192,23.4752922 C28.9744292,23.4817449 28.7808219,23.6587325 28.7511416,23.8937942 C28.6995434,24.3058436 27.369863,33.9871605 16.6557078,36.2400658 C5.94109589,33.9871605 4.61141553,24.3053827 4.55981735,23.8933333 C4.53013699,23.6582716 4.33652968,23.481284 4.10273973,23.4748313 C3.9716895,23.4720658 0.894977169,23.3453169 0.894977169,19.1381728 C0.894977169,17.6890864 1.25799087,16.6031934 1.97260274,15.9104527 C2.50639269,15.3933169 3.14155251,15.1965103 3.5716895,15.1227654 C3.51917808,15.9874239 3.52739726,17.4752263 4.11826484,18.0836214 C4.34155251,18.3140741 4.62420091,18.4136296 4.94200913,18.3892016 C5.17488584,18.3666173 5.35570776,18.1758025 5.36849315,17.9398189 C5.45890411,16.2612016 8.38584475,14.9006091 11.7744292,13.3247737 C16.3762557,11.1857119 22.1018265,8.52306173 25.3657534,3.39641152 C25.5004566,3.18393416 25.4488584,2.90232099 25.2474886,2.75344856 L25.039726,2.60042798 C22.5899543,0.855901235 19.7054795,-0.065909465 16.6972603,-0.065909465 C8.7086758,-0.065909465 2.20913242,6.49415638 2.20913242,14.5572346 L2.25525114,14.5572346 C1.94520548,14.7130206 1.62739726,14.9236543 1.32922374,15.2094156 C0.413242009,16.089284 -0.0511415525,17.4106996 -0.0511415525,19.1377119 C-0.0511415525,21.7413663 1.00319635,23.0650864 2.04657534,23.7370864 C2.30913242,26.3877531 1.1803653,31.7222716 1.16849315,31.7775802 C1.12054795,32.0001975 1.23607306,32.2260412 1.44292237,32.3163786 C2.68310502,32.8560988 4.00502283,33.0201811 5.15479452,33.0201811 C6.4826484,33.0201811 7.57305936,32.8026337 8.04703196,32.6910947 C9.96575342,34.6577778 12.6926941,36.4009218 16.5607306,37.1946008 C16.5922374,37.2010535 16.6237443,37.2038189 16.6547945,37.2038189 C16.6863014,37.2038189 16.7178082,37.2010535 16.7488584,37.1946008 C20.616895,36.4009218 23.3438356,34.6577778 25.2625571,32.6910947 C25.7360731,32.8030947 26.826484,33.0201811 28.1547945,33.0201811 C29.3045662,33.0201811 30.626484,32.8560988 31.8666667,32.3163786 C32.073516,32.2260412 32.1890411,32.0006584 32.1410959,31.7775802 C32.1296804,31.7227325 31.0009132,26.3895967 31.2634703,23.7375473 L31.2634703,23.7375473 Z M29.2136986,14.1253663 C28.6136986,14.1336626 28.4926941,14.8646584 28.3086758,15.9699095 C28.2986301,16.0330535 28.2863014,16.1031111 28.2744292,16.1759342 C26.5255708,13.084642 24.0484018,9.90623868 23.1894977,8.83279012 C24.5328767,7.64826337 25.696347,5.77007407 26.2255708,4.84457613 C28.7127854,7.3320823 30.1579909,10.7151276 30.2365297,14.253037 C29.6643836,14.1064691 29.2392694,14.1262881 29.2136986,14.1253663 L29.2136986,14.1253663 Z M16.6977169,0.88908642 C19.4410959,0.88908642 22.0753425,1.70949794 24.3214612,3.25906173 C21.1657534,7.9086749 15.7511416,10.4261399 11.3789954,12.4587325 C8.0652968,13.9995391 5.35616438,15.2591934 4.61826484,17.038749 C4.47351598,16.4778272 4.46392694,15.4859588 4.56027397,14.657251 C4.57488584,14.5268148 4.53515982,14.394535 4.45114155,14.2935967 C4.36621005,14.1931193 4.24429224,14.1322798 4.11415525,14.1258272 C4.10684932,14.1249053 4.07899543,14.1239835 4.03561644,14.1239835 C3.89178082,14.1239835 3.56666667,14.1368889 3.15844749,14.2322963 C3.33105023,6.84536626 9.33789954,0.88908642 16.6977169,0.88908642 L16.6977169,0.88908642 Z M2.17488584,31.5835391 C2.4196347,30.3639835 3.11050228,26.6573827 3.02557078,24.206749 C3.27899543,24.2929383 3.50730594,24.3482469 3.68447489,24.3800494 C3.89543379,25.4751605 4.72557078,28.813037 7.30639269,31.8674568 C6.21552511,32.0619588 4.09497717,32.2864198 2.17488584,31.5835391 L2.17488584,31.5835391 Z M26.0054795,31.8660741 C28.5853881,28.8121152 29.4155251,25.4751605 29.626484,24.3800494 C29.803653,24.3482469 30.0319635,24.2929383 30.2853881,24.206749 C30.2004566,26.6573827 30.8917808,30.3639835 31.1360731,31.5835391 C29.2200913,32.2836543 27.0977169,32.0601152 26.0054795,31.8660741 L26.0054795,31.8660741 Z M20.3949772,27.5395556 C19.2849315,27.8257778 18.083105,27.9700412 16.8196347,27.9700412 C15.5484018,27.9700412 14.2287671,27.8239342 12.8990868,27.5349465 C12.7579909,27.5077531 12.6136986,27.5395556 12.5022831,27.6308148 C12.3913242,27.7211523 12.3269406,27.8571193 12.3269406,28.0018436 C12.3269406,30.4109959 14.2689498,32.3707654 16.6557078,32.3707654 C19.043379,32.3707654 20.9853881,30.4109959 20.9853881,28.0018436 C20.9853881,27.8548148 20.9178082,27.7156214 20.8027397,27.625284 C20.686758,27.5340247 20.5378995,27.5003786 20.3949772,27.5395556 L20.3949772,27.5395556 Z M16.6552511,31.4166914 C14.9894977,31.4166914 13.6018265,30.1957531 13.3228311,28.5936461 C14.5073059,28.8134979 15.6808219,28.9245761 16.8196347,28.9245761 C17.9219178,28.9245761 18.983105,28.8204115 19.9849315,28.613465 C19.6986301,30.2049712 18.3146119,31.4166914 16.6552511,31.4166914 L16.6552511,31.4166914 Z" id="Shape"></path>
            </g>
            <circle id="Oval-1" stroke="#FFFFFF" sketch:type="MSShapeGroup" cx="25" cy="25" r="25"></circle>
        </g>
    </g>
</svg>